
<svg width="45px" height="45px" viewBox="399 8262 45 45" version="1.1" xmlns="http://www.w3.org/2000/svg" xmlns:xlink="http://www.w3.org/1999/xlink">
    <!-- Generator: Sketch 42 (36781) - http://www.bohemiancoding.com/sketch -->
    <desc>Created with Sketch.</desc>
    <defs>
        <polygon id="path-1" points="22.4993123 44.4372142 44.9986078 44.4372142 44.9986078 0.165875489 22.4993123 0.165875489 1.68601673e-05 0.165875489 1.68601673e-05 44.4372142 22.4993123 44.4372142"></polygon>
    </defs>
    <g id="Group-7" stroke="none" stroke-width="1" fill="none" fill-rule="evenodd" transform="translate(399.000000, 8262.000000)">
        <mask id="mask-2" fill="white">
            <use xlink:href="#path-1"></use>
        </mask>
        <g id="Clip-2"></g>
        <g id="Group-6" mask="url(#mask-2)">
            <g transform="translate(0.000000, 0.148459)">
                <path d="M42.5151219,44.2887556 C43.886528,44.2887556 44.9986246,43.1946409 44.9986246,41.8454096 L44.9986246,2.46092876 C44.9986246,1.1111999 43.886528,0.0174169264 42.5151219,0.0174169264 L2.48351958,0.0174169264 C1.11160773,0.0174169264 1.68601673e-05,1.1111999 1.68601673e-05,2.46092876 L1.68601673e-05,41.8454096 C1.68601673e-05,43.1946409 1.11160773,44.2887556 2.48351958,44.2887556 L42.5151219,44.2887556 Z" id="Fill-1" fill="#2F4C54"></path>
                <path d="M31.0482351,44.2887556 L31.0482351,27.1446944 L36.8975332,27.1446944 L37.7732503,20.4632297 L31.0482351,20.4632297 L31.0482351,16.1974098 C31.0482351,14.2629698 31.5941674,12.9447573 34.4138619,12.9447573 L38.0101357,12.9430985 L38.0101357,6.96726817 C37.3879955,6.88598918 35.2533296,6.70402377 32.7698269,6.70402377 C27.5848195,6.70402377 24.0352483,9.81767257 24.0352483,15.5358983 L24.0352483,20.4632297 L18.1711133,20.4632297 L18.1711133,27.1446944 L24.0352483,27.1446944 L24.0352483,44.2887556 L31.0482351,44.2887556 Z" id="Fill-4" fill="#FFFFFF"></path>
            </g>
        </g>
    </g>
</svg>