
<svg width="45px" height="48px" viewBox="110 8262 45 48" version="1.1" xmlns="http://www.w3.org/2000/svg" xmlns:xlink="http://www.w3.org/1999/xlink">
    <!-- Generator: Sketch 42 (36781) - http://www.bohemiancoding.com/sketch -->
    <defs>
        <polygon id="path-1" points="1.35224772e-21 0.0722793269 1.35224772e-21 46.2842655 44.982908 46.2842655 44.982908 0.0722793269 0 0.0722793269"></polygon>
    </defs>
    <g id="Page-1" stroke="none" stroke-width="1" fill="none" fill-rule="evenodd" transform="translate(110.000000, 8262.000000)">
        <g id="Group-3" transform="translate(0.000000, 0.027531)">
            <mask id="mask-2" fill="white">
                <use xlink:href="#path-1"></use>
            </mask>
            <g id="Clip-2"></g>
            <path d="M13.2303692,3.57003615 C7.86439357,3.57003615 3.4987949,7.93432695 3.4987949,13.2989173 L3.4987949,33.0576274 C3.4987949,38.4221181 7.86439357,42.7866084 13.2303692,42.7866084 L31.7525089,42.7866084 C37.118684,42.7866084 41.4842827,38.4221181 41.4842827,33.0576274 L41.4842827,13.2989173 C41.4842827,7.93432695 37.118684,3.57003615 31.7525089,3.57003615 L13.2303692,3.57003615 Z M31.7525089,46.2842655 L13.2303692,46.2842655 C5.93508093,46.2842655 -2.99334806e-05,40.3508968 -2.99334806e-05,33.0576274 L-2.99334806e-05,13.2989173 C-2.99334806e-05,6.00564797 5.93508093,0.0722793269 13.2303692,0.0722793269 L31.7525089,0.0722793269 C39.0478969,0.0722793269 44.982908,6.00564797 44.982908,13.2989173 L44.982908,33.0576274 C44.982908,40.3508968 39.0478969,46.2842655 31.7525089,46.2842655 L31.7525089,46.2842655 Z" id="Fill-1" fill="#2F4C54" mask="url(#mask-2)"></path>
        </g>
        <path d="M22.2090466,15.0932422 C20.2450111,15.0932422 18.3763636,15.8613222 16.9255876,17.2701008 C15.3490909,18.8008744 14.4449002,20.9410247 14.4449002,23.1417238 C14.4449002,27.577436 18.0545787,31.1861156 22.4915188,31.1861156 C26.9047118,31.1861156 30.4394568,27.6320994 30.5385366,23.0950404 C30.5886253,20.8060621 29.931286,18.8664105 28.637561,17.4856619 C27.2460532,16.0004744 25.0991242,15.1743394 22.4291574,15.0964342 C22.3556208,15.0943394 22.2822838,15.0932422 22.2090466,15.0932422 M22.4915188,35.4611295 C15.6966186,35.4611295 10.1686031,29.9347436 10.1686031,23.1417238 C10.1686031,19.7922962 11.5454435,16.5344397 13.9462084,14.2034663 C16.2874058,11.9301488 19.3434146,10.7285524 22.5537805,10.8232157 C26.3878603,10.9350362 29.5707871,12.2283035 31.7585255,14.5631672 C33.8323171,16.776335 34.8887694,19.7588797 34.8138359,23.1884071 C34.7419956,26.4716002 33.4463747,29.5462148 31.1653437,31.8459662 C28.8529823,34.1772388 25.7726275,35.4611295 22.4915188,35.4611295" id="Fill-4" fill="#2F4C54"></path>
        <path d="M37.8927938,10.5515149 C37.8927938,12.1287723 36.6138359,13.4073762 35.0360421,13.4073762 C33.4583481,13.4073762 32.1793902,12.1287723 32.1793902,10.5515149 C32.1793902,8.97415773 33.4583481,7.69565355 35.0360421,7.69565355 C36.6138359,7.69565355 37.8927938,8.97415773 37.8927938,10.5515149" id="Fill-6" fill="#2F4C54"></path>
    </g>
</svg>