
<svg width="48px" height="47px" viewBox="934 8259 48 47" version="1.1" xmlns="http://www.w3.org/2000/svg" xmlns:xlink="http://www.w3.org/1999/xlink">
    <!-- Generator: Sketch 42 (36781) - http://www.bohemiancoding.com/sketch -->
    <desc>Created with Sketch.</desc>
    <defs></defs>
    <g id="Page-1" stroke="none" stroke-width="1" fill="none" fill-rule="evenodd" transform="translate(935.000000, 8259.000000)">
        <path d="M23.3178586,0.348078125 C10.6195453,0.348078125 0.32571579,10.7137403 0.32571579,23.4998886 C0.32571579,33.3080739 6.38562293,41.6855293 14.9387747,45.058908 C14.7377678,43.2271981 14.5564472,40.4175563 15.0185557,38.4178731 C15.4364565,36.610855 17.7148794,26.9097832 17.7148794,26.9097832 C17.7148794,26.9097832 17.0268972,25.5232202 17.0268972,23.4724147 C17.0268972,20.2530986 18.8798211,17.8500011 21.1872552,17.8500011 C23.1489714,17.8500011 24.0966738,19.3328966 24.0966738,21.1110497 C24.0966738,23.0975176 22.8405537,26.0671341 22.1922894,28.8197415 C21.6503998,31.1240721 23.3396171,33.0030787 25.5969722,33.0030787 C29.6837659,33.0030787 32.824584,28.6642878 32.824584,22.4012801 C32.824584,16.8581582 28.869032,12.9822505 23.2208089,12.9822505 C16.6787617,12.9822505 12.8389094,17.9233808 12.8389094,23.0297022 C12.8389094,25.0193001 13.6001106,27.1532229 14.5498851,28.3130391 C14.7377678,28.5422202 14.7653976,28.7432319 14.7094473,28.976934 C14.5346888,29.7086441 14.1468354,31.2809168 14.0708534,31.602605 C13.97035,32.0265378 13.7375689,32.1166105 13.302054,31.9124689 C10.4302811,30.5665952 8.63468912,26.3387432 8.63468912,22.9431073 C8.63468912,15.6399164 13.9043838,8.93315284 23.8265924,8.93315284 C31.8022812,8.93315284 38.0013735,14.6560723 38.0013735,22.3042519 C38.0013735,30.2835096 33.0048685,36.7047532 26.0701326,36.7047532 C23.7402493,36.7047532 21.5498964,35.4861636 20.8000926,34.0463917 C20.8000926,34.0463917 19.6475843,38.4669088 19.3678325,39.5502154 C18.8487375,41.5610273 17.4472157,44.0820192 16.5102199,45.6195148 C18.6615456,46.2900173 20.9475667,46.6520469 23.3178586,46.6520469 C36.016172,46.6520469 46.3100015,36.2867325 46.3100015,23.4998886 C46.3100015,10.7137403 36.016172,0.348078125 23.3178586,0.348078125" id="Fill-3" fill="#2F4C54"></path>
    </g>
</svg>