
<svg width="45px" height="38px" viewBox="663 8265 45 38" version="1.1" xmlns="http://www.w3.org/2000/svg" xmlns:xlink="http://www.w3.org/1999/xlink">
    <!-- Generator: Sketch 42 (36781) - http://www.bohemiancoding.com/sketch -->
    <desc>Created with Sketch.</desc>
    <defs></defs>
    <g id="Twitter_Logo_White_On_Blue-Copy" stroke="none" stroke-width="1" fill="none" fill-rule="evenodd" transform="translate(663.000000, 8265.000000)">
        <g id="Twitter_Logo_White-on-Blue" fill="#2F4C54">
            <g id="Logo_FIXED">
                <path d="M14.322172,37.0525316 C30.9564172,37.0525316 40.0546476,23.1625109 40.0546476,11.1171475 C40.0546476,10.7226254 40.0546476,10.3298805 40.0281993,9.93891266 C41.7981778,8.64856041 43.326053,7.05086778 44.5402868,5.22064182 C42.8896969,5.95779704 41.1387287,6.44122321 39.345832,6.6547829 C41.2337924,5.51561293 42.6468031,3.7238961 43.3218997,1.61307504 C41.5466119,2.67482871 39.6044018,3.42309974 37.5790826,3.82559753 C34.7757041,0.821177308 30.3211621,0.0858348962 26.7133081,2.03190808 C23.1054541,3.97798127 21.2415437,8.12149112 22.1667509,12.1389953 C14.8950356,11.7715735 8.11999258,8.30986216 3.52772113,2.61537438 C1.12730954,6.78032752 2.35339328,12.1085344 6.32771916,14.7833595 C4.88847292,14.7403664 3.4806067,14.3490532 2.22293615,13.6424443 L2.22293615,13.7579575 C2.22411422,18.0969771 5.25876788,21.8341713 9.47859856,22.6933495 C8.14713531,23.059331 6.75015315,23.1128301 5.39497422,22.8497366 C6.57976823,26.5629053 9.97507729,29.1066149 13.8443386,29.1798612 C10.6418585,31.7165883 6.68575835,33.0936762 2.61260842,33.0895395 C1.89304343,33.0881472 1.17417831,33.0442361 0.459713205,32.9580321 C4.59559233,35.633099 9.40791695,37.0520285 14.322172,37.0454231" id="Shape"></path>
            </g>
        </g>
    </g>
</svg>